<?xml version="1.0" encoding="UTF-8"?>
<svg id="Capa_2" data-name="Capa 2" xmlns="http://www.w3.org/2000/svg" viewBox="0 0 114.62 27.87">
  <defs>
    <style>
      .cls-1 {
        fill: #e6bd80;
      }
    </style>
  </defs>
  <g id="Capa_1-2" data-name="Capa 1">
    <g>
      <path class="cls-1" d="M7.36.1c1.26-.23,2.54,0,3.81.06,1.17.08,2.35.16,3.52.24.26,1.76.52,3.52.79,5.27.05.35.12.69.12,1.05-.08-.14-.14-.3-.18-.45-.42-1.5-1.21-2.9-2.33-3.99-.95-.92-2.18-1.58-3.49-1.78-1.72-.25-3.59.16-4.88,1.36-1.4,1.3-2.03,3.19-2.34,5.02-.28,1.82-.35,3.69-.12,5.52.25,1.91.94,3.83,2.27,5.26,1.16,1.26,2.81,2.06,4.52,2.16,1.51.11,3.06-.33,4.29-1.22,1.08-.77,1.91-1.86,2.5-3.05.13.05.27.09.41.14-.72,1.53-1.86,2.88-3.31,3.75-2.61,1.61-6.12,1.57-8.69-.1-1.7-1.07-2.92-2.79-3.55-4.67C.03,12.78-.11,10.75.07,8.78c.2-2.12.92-4.24,2.31-5.87C3.64,1.42,5.43.4,7.36.1"/>
      <path class="cls-1" d="M22.76.36c.28,0,.56,0,.84,0,1.91,5.43,3.82,10.86,5.73,16.28.27.72.47,1.47.84,2.15.36.66.98,1.14,1.68,1.4-1.99,0-3.98.03-5.97-.01.6-.16,1.26-.38,1.61-.93.3-.47.13-1.05-.05-1.53-.51-1.45-1.01-2.91-1.52-4.37-.07.3-.14.6-.21.89-.6-.17-1.31-.17-1.81.26-.82.67-1.14,1.73-1.54,2.67-.43.98-.79,2.07-1.67,2.76-.62.51-1.5.58-2.25.36-.44-.13-.8-.49-.91-.94-.18-.76.03-1.53.23-2.26,1.67-5.58,3.34-11.15,5.01-16.73M22.47,3.51c-1.29,4.3-2.57,8.6-3.86,12.9-.17.62-.45,1.23-.37,1.88.04.39.32.73.7.82.74.17,1.56-.07,2.1-.6.63-.6.95-1.43,1.23-2.24.39-1.03.82-2.11,1.63-2.89.48-.47,1.18-.64,1.83-.49-1.1-3.12-2.17-6.25-3.27-9.38"/>
      <path class="cls-1" d="M32.25.41h5.64c1.13,0,2.3,0,3.38.38.75.26,1.46.73,1.83,1.45.44.82.37,1.81.14,2.69-.39,1.44-1.2,2.74-2.13,3.9-1.41,1.73-3.15,3.21-5.16,4.21,0,1.69,0,3.37,0,5.06,0,.42,0,.87.28,1.22.34.44.88.66,1.38.88-1.79.02-3.58,0-5.37,0,.5-.22,1.06-.42,1.4-.87.25-.32.25-.74.26-1.13V2.41c0-.39-.01-.81-.26-1.13-.34-.45-.9-.65-1.4-.87M35.97.84c0,3.88,0,7.77,0,11.65,1.34-.92,2.45-2.15,3.36-3.49.92-1.38,1.68-2.89,1.96-4.54.14-.89.1-1.9-.48-2.65-.51-.67-1.37-.93-2.18-.97-.89-.03-1.77,0-2.66-.01"/>
      <path class="cls-1" d="M44.47.43c1.79,0,3.58,0,5.37,0-.49.23-1.03.44-1.38.88-.28.34-.28.8-.29,1.22,0,5.23,0,10.45,0,15.68,0,.39.03.81.28,1.12.34.44.88.66,1.38.87-1.79.02-3.58.01-5.37,0,.51-.21,1.06-.41,1.4-.86.25-.32.25-.75.26-1.14V2.41c0-.39-.02-.81-.27-1.12-.34-.45-.89-.64-1.39-.86"/>
      <path class="cls-1" d="M51.2.41c6.72,0,13.44,0,20.16,0,.2,2.05.45,4.09.61,6.14-.19-.34-.24-.74-.35-1.11-.27-.98-.58-1.96-1.09-2.85-.36-.63-.88-1.2-1.56-1.48-.71-.3-1.49-.29-2.25-.28-.24,0-.41.2-.57.35-.37.38-.36.94-.36,1.43.01,5.29-.01,10.58.01,15.88-.02.93.9,1.41,1.65,1.7-1.79,0-3.58,0-5.37,0,.49-.21,1.03-.41,1.37-.84.29-.35.28-.84.29-1.27,0-5.3,0-10.6,0-15.89.03-.55-.27-1.14-.8-1.34-1.02-.03-2.04,0-3.06-.01-.35-.06-.61.22-.81.46-.25.32-.26.74-.27,1.12,0,5.26,0,10.52,0,15.78,0,.38.03.8.28,1.12.34.45.88.65,1.38.88-1.79,0-3.58,0-5.36,0,.5-.22,1.05-.42,1.4-.86.25-.32.26-.75.26-1.13,0-5.23,0-10.46,0-15.68,0-.44,0-.95-.31-1.3-.17-.18-.38-.41-.66-.38-.77,0-1.59-.02-2.3.33-.75.34-1.27,1.02-1.63,1.74-.56,1.13-.88,2.36-1.18,3.58l-.09-.02c.21-2.02.41-4.04.62-6.05"/>
      <path class="cls-1" d="M76.97.36c.28,0,.56,0,.84,0,1.94,5.51,3.88,11.03,5.82,16.54.24.66.43,1.34.78,1.96.36.63.97,1.09,1.64,1.34-1.99,0-3.98.02-5.97,0,.59-.17,1.25-.38,1.61-.93.25-.39.18-.87.03-1.28-.53-1.54-1.07-3.08-1.6-4.61-.07.3-.15.59-.22.89-.58-.16-1.26-.17-1.75.21-.8.6-1.14,1.59-1.51,2.48-.38.86-.68,1.78-1.28,2.52-.41.51-1.01.89-1.68.93-.57.03-1.22-.03-1.64-.46-.41-.43-.43-1.08-.37-1.64.11-.8.38-1.56.61-2.33,1.56-5.2,3.12-10.4,4.68-15.61M76.68,3.51c-1.37,4.58-2.74,9.16-4.11,13.73-.13.48-.24,1.04.04,1.49.25.38.74.46,1.17.43.7-.03,1.36-.42,1.78-.98.67-.84.88-1.93,1.33-2.89.37-.8.79-1.64,1.53-2.15.44-.31,1.01-.37,1.53-.26-1.1-3.12-2.17-6.25-3.27-9.38"/>
      <path class="cls-1" d="M86.46.42c1.79,0,3.59,0,5.38,0-.49.23-1.03.44-1.38.87-.28.34-.28.8-.29,1.22,0,5.26,0,10.53,0,15.79-.02.48.13.99.53,1.29.25.27.64.16.97.18,1.3-.03,2.61.07,3.91-.12.85-.11,1.68-.46,2.31-1.05.71-.66,1.14-1.56,1.43-2.47.1-.29.14-.6.31-.86-.15,1.65-.41,3.28-.6,4.92-4.19,0-8.38,0-12.56,0,.5-.22,1.06-.42,1.4-.87.25-.32.25-.75.26-1.13V2.41c0-.38-.02-.8-.26-1.12-.34-.45-.9-.65-1.4-.87"/>
      <path class="cls-1" d="M93.9.42c1.79,0,3.58,0,5.38,0-.49.22-1.01.44-1.36.86-.29.34-.3.81-.3,1.24,0,3.58,0,7.16,0,10.74,0,.42.01.89.3,1.23.35.42.87.63,1.36.85-1.79,0-3.58,0-5.37,0,.52-.23,1.11-.44,1.44-.93.26-.4.21-.9.22-1.36,0-3.51,0-7.02,0-10.53,0-.42,0-.88-.27-1.23-.35-.45-.9-.65-1.4-.87"/>
      <path class="cls-1" d="M105.49.36c.28,0,.56,0,.84,0,1.91,5.43,3.82,10.86,5.73,16.29.27.74.48,1.51.87,2.2.36.64.98,1.09,1.65,1.36-1.99-.01-3.98.01-5.97-.01.58-.16,1.2-.37,1.57-.86.29-.39.23-.92.08-1.35-.53-1.54-1.07-3.08-1.6-4.61-.07.3-.14.59-.21.89-.58-.16-1.25-.17-1.75.21-.8.6-1.14,1.59-1.51,2.48-.38.86-.68,1.78-1.28,2.52-.41.51-1.02.9-1.68.93-.57.03-1.21-.04-1.63-.46-.41-.43-.43-1.08-.36-1.64.11-.8.38-1.56.61-2.33,1.56-5.2,3.12-10.41,4.68-15.61M101.13,17.15c-.13.44-.24.92-.09,1.36.1.33.41.56.74.62.82.15,1.68-.19,2.21-.83.75-.85.96-2,1.43-3.01.37-.8.79-1.63,1.53-2.15.44-.32,1.01-.37,1.53-.26-1.1-3.12-2.18-6.26-3.27-9.38-1.36,4.55-2.72,9.09-4.08,13.64"/>
      <rect class="cls-1" x="0" y="25.51" width="38.66" height=".67"/>
      <path class="cls-1" d="M46.6,26.9c-.03.15-.18.72-.24.89h-2.72v-.16c.52-.04.56-.09.56-.55v-2.21c0-.5-.06-.53-.48-.57v-.16h1.72c.53,0,.75,0,.81-.01,0,.14.03.56.05.86l-.17.03c-.05-.19-.11-.31-.17-.43-.09-.18-.22-.22-.55-.22h-.53c-.17,0-.18.02-.18.18v1.24h.62c.42,0,.45-.08.51-.47h.17v1.15h-.17c-.07-.4-.12-.46-.52-.46h-.62v1.11c0,.39.12.43.4.43h.52c.34,0,.4-.05.52-.2.11-.12.22-.35.3-.51l.17.04Z"/>
      <path class="cls-1" d="M51.54,24.3c-.38.05-.47.1-.67.6-.15.37-.93,2.25-1.2,2.94h-.18c-.33-.9-.81-2.21-1.13-3.04-.16-.42-.25-.47-.59-.5v-.16h1.42v.16c-.42.04-.44.11-.36.32.14.41.55,1.52.9,2.45.3-.72.67-1.64.93-2.34.12-.33.06-.38-.4-.43v-.16h1.29v.16Z"/>
      <path class="cls-1" d="M55.78,26.9c-.03.15-.18.72-.24.89h-2.72v-.16c.52-.04.56-.09.56-.55v-2.21c0-.5-.06-.53-.48-.57v-.16h1.72c.53,0,.75,0,.81-.01,0,.14.03.56.05.86l-.17.03c-.05-.19-.11-.31-.17-.43-.09-.18-.22-.22-.55-.22h-.53c-.17,0-.18.02-.18.18v1.24h.62c.42,0,.45-.08.51-.47h.17v1.15h-.17c-.07-.4-.12-.46-.52-.46h-.62v1.11c0,.39.12.43.4.43h.52c.34,0,.4-.05.52-.2.11-.12.22-.35.3-.51l.17.04Z"/>
      <path class="cls-1" d="M61.17,24.3c-.36.04-.48.09-.49.35,0,.18-.02.42-.02.94v2.25h-.21l-2.4-2.93v1.4c0,.5.02.76.03.92.01.29.15.37.56.4v.16h-1.36v-.16c.35-.03.48-.11.5-.39.02-.18.03-.43.03-.94v-1.43c0-.16-.01-.25-.11-.37-.11-.14-.22-.17-.5-.2v-.16h.84l2.38,2.82v-1.37c0-.52-.01-.76-.03-.93-.02-.25-.15-.33-.59-.36v-.16h1.38v.16Z"/>
      <path class="cls-1" d="M65.73,25.03c-.05-.18-.12-.36-.18-.47-.09-.15-.15-.19-.45-.19h-.56v2.73c0,.44.04.5.58.53v.16h-1.63v-.16c.52-.03.57-.09.57-.53v-2.73h-.51c-.31,0-.4.03-.49.2-.07.11-.11.25-.18.45h-.17c.03-.34.07-.69.08-1.01h.13c.08.13.15.13.3.13h2.22c.16,0,.2-.02.29-.13h.13c0,.26.02.67.05.99l-.17.02Z"/>
      <path class="cls-1" d="M69.46,25c-.09-.37-.25-.73-.78-.73-.44,0-.59.32-.59.61,0,.39.25.58.71.82.67.35.96.6.96,1.14,0,.59-.51,1.04-1.23,1.04-.34,0-.63-.09-.86-.18-.04-.16-.11-.54-.15-.84l.17-.05c.11.38.36.86.94.86.4,0,.65-.28.65-.64,0-.43-.23-.61-.72-.87-.59-.32-.92-.59-.92-1.11s.41-.97,1.15-.97c.31,0,.62.08.74.11.02.2.04.43.09.79l-.17.03Z"/>
      <rect class="cls-1" x="75.96" y="25.51" width="38.66" height=".67"/>
    </g>
  </g>
</svg>